<?xml version="1.0" encoding="UTF-8"?>
<!DOCTYPE svg PUBLIC "-//W3C//DTD SVG 1.1//EN" "http://www.w3.org/Graphics/SVG/1.1/DTD/svg11.dtd">
<!-- Creator: CorelDRAW X8 -->
<svg xmlns="http://www.w3.org/2000/svg" xml:space="preserve" width="200mm" height="145mm" version="1.1" style="shape-rendering:geometricPrecision; text-rendering:geometricPrecision; image-rendering:optimizeQuality; fill-rule:evenodd; clip-rule:evenodd"
viewBox="0 0 20000 14500"
 xmlns:xlink="http://www.w3.org/1999/xlink">
 <defs>
  <style type="text/css">
   <![CDATA[
    .fil0 {fill:#383838}
    .fil1 {fill:#5F680F}
    .fil2 {fill:#383838;fill-rule:nonzero}
    .fil3 {fill:#5F680F;fill-rule:nonzero}
   ]]>
  </style>
 </defs>
 <g id="Слой_x0020_1">
  <metadata id="CorelCorpID_0Corel-Layer"/>
  <g id="_2523473594032">
   <g>
    <path class="fil0" d="M8763 9790c338,43 4130,42 4340,-11 146,-231 253,-488 379,-737 191,-376 1061,-2144 1165,-2237 73,63 1143,1841 1227,2018 51,-88 -186,-453 -237,-554 -98,-192 -190,-387 -292,-587 -102,-199 -490,-1036 -593,-1157l-4033 -16 -61 99c-29,46 -35,67 -73,95 -273,202 -90,-201 -472,515l-895 1702c-173,323 -309,561 -455,870z"/>
    <path class="fil0" d="M5044 8822l598 1c37,-620 15,-572 -288,-569 -100,1 -201,0 -301,5 -49,159 -40,396 -9,563z"/>
    <path class="fil0" d="M5858 8817l602 9 12 -546c-166,-40 -453,-43 -619,2l5 535z"/>
    <path class="fil1" d="M9441 4824l-1 -542 -460 5 -13 544 -3544 9c-194,298 -955,2130 -1172,2613 -108,239 -262,646 -378,843 -505,51 -197,81 -554,15 -35,48 -27,-60 -47,111 82,-1 175,0 258,-7 37,-2 92,-11 117,-12 6,0 19,0 24,0l46 3c105,115 -14,265 -58,404l-171 -22c1,254 -32,110 -49,163 -6,16 -10,21 -13,21 -6,1 -7,-22 0,0 2,6 4,14 7,26 1,4 8,16 10,20 1,4 13,28 14,22 2,-6 12,16 18,24 -199,20 -86,2 -227,104 -87,-25 -98,-69 -163,-97 -12,115 -17,-3 39,110 3,6 14,33 16,27 2,-6 12,17 16,27 -114,-4 -145,-18 -235,19 -129,53 -238,92 -367,23l-99 140c-63,-95 -29,-16 -57,-127l-30 -336c-4,-78 -80,-124 24,-185 55,-32 97,30 205,72l90 -409c237,22 -1,98 280,93l297 -12 8 -91 -141 -18c-86,-4 -21,25 -132,-17 12,-123 -25,-83 104,-156 84,-48 150,-34 243,-69 110,-41 88,-81 199,-117l-111 -61c-10,-5 -64,-25 -77,-30 -82,-30 -76,-34 -161,-42 -20,164 1,215 -128,257 -107,35 -112,-2 -205,46 -101,51 18,19 -109,95 -14,-138 9,-205 8,-317 -3,-311 -10,-28 -102,-207 44,-71 20,-22 53,-76l96 -189c24,-53 19,-47 40,-85l224 -10 105 113c46,-29 53,-34 113,-55 -134,-197 -256,-156 -485,-316 55,-46 120,-36 150,-49 -51,-77 -34,-238 -16,-260l99 -92c144,-215 46,-202 335,-266l221 -83c-66,-59 -90,-56 -94,-176 87,-62 128,-15 177,-100 82,-143 -36,-152 -39,-155l-270 -264c297,97 550,247 869,247 -7,-318 -218,-127 -276,-653 88,49 18,3 79,53 7,6 15,13 22,19l83 97c140,162 396,337 612,230l-128 -55c-63,-29 -59,-23 -107,-66 -266,-236 -228,-314 -242,-666 182,94 301,492 577,366 -43,-105 -17,-64 -165,-110 44,-197 18,-163 4,-352 124,48 135,90 207,171l49 -130c-10,-6 -295,-168 -398,-280 17,-203 123,-156 -43,-314 317,-79 188,217 490,296 110,-235 -169,-273 -301,-344 -31,-17 -43,-21 -47,-22 -4,0 1,4 0,0 -1,-3 -7,-13 -30,-37 55,-117 121,-37 144,-98 4,-12 19,-3 27,-8 -107,-53 -121,-24 -130,-162 191,-19 130,114 267,179 50,-116 -113,-71 -20,-383l-144 -55 24 -265c206,19 117,128 245,258 47,-90 -36,-344 -81,-484l146 -35c-16,-165 -58,-232 75,-332 107,161 33,113 52,258 12,99 73,107 97,179 -37,63 -121,172 -150,248 197,-23 158,-76 310,-96 -7,199 -68,-9 -69,290 -144,13 -79,-28 -198,49 -13,133 -13,124 28,215 167,-38 210,-152 355,-241 11,286 -264,502 -305,724 113,-28 175,-134 253,-252 94,-143 197,-173 251,-266 62,59 37,88 78,189 217,47 78,33 210,-76 172,63 9,79 207,78 50,-119 -10,-82 90,-160 -109,-60 -104,-37 -140,-166 306,-62 295,86 481,47 173,-37 62,8 115,-56 -86,-26 -103,-8 -178,-35 -49,-18 -36,-18 -80,-38 -105,-49 -299,-48 -353,-68 -33,-208 53,-83 -48,-364l219 -126c119,-103 49,-80 260,-55 -81,-380 58,-264 184,-261 -56,-266 -1,-27 124,-344l26 -56c3,-16 8,-21 16,-28 137,95 291,24 409,154 1,0 1,1 1,1 205,-81 -93,83 -1,-1 15,-13 41,-33 80,-62 36,-26 20,-29 12,-30 -4,0 -6,1 0,0 6,0 20,-2 49,-7 40,84 5,47 22,99 55,165 60,86 173,133 19,146 -18,143 -97,220 146,16 136,38 289,67 113,21 146,21 202,99l182 288c4,6 7,16 11,22 122,203 849,452 1035,356 -22,-263 -237,-6 -334,-320l-220 -40 -198 -537c165,54 113,136 299,233 108,57 287,90 396,142 -42,-281 -87,-18 -186,-249l243 -35c-285,-72 -13,-145 -434,-164 -4,-187 -65,-233 21,-379 -251,-63 -111,-246 -138,-400 242,30 342,369 523,509 76,-106 33,-81 -31,-164l-222 -535c1,-11 4,-15 7,-22 126,94 17,49 167,149 73,48 85,73 187,78l15 -216c-114,-49 -46,-39 -184,-20 -16,-92 -10,-105 -41,-181 -47,-116 -36,38 -54,-116 133,-12 156,47 314,80 -37,-82 -118,-202 -160,-267 76,-85 51,-42 127,-99 -10,-83 -38,-137 -21,-212 53,-239 -7,-93 106,-102 63,129 20,228 42,377 100,-1 -15,-98 134,-35 -22,74 -61,145 -75,228 -24,146 22,123 -49,256 190,-17 26,-142 264,-245l75 232 -152 90 -21 299c-6,30 -14,2 -20,100 38,-37 13,-13 57,-65 66,-77 66,-105 166,-138l35 80c4,8 10,17 13,25 4,8 10,17 14,24l23 47c28,87 15,86 -42,157 108,50 57,-28 149,67 -98,74 -26,-20 -82,104 80,96 250,295 428,212 -58,-180 -108,16 -158,-172 0,-1 -7,-239 6,-273 115,22 101,82 217,139 8,-205 -3,-103 -178,-225l-172 -150 -8 -227c-10,-94 -8,-39 -17,-74 -7,-24 -12,-41 -17,-53 -35,-84 -21,159 -1,0 1,0 1,0 1,0 172,-16 166,31 270,170 33,44 167,214 197,105 13,-47 66,-117 -83,-217 -186,-123 -224,-11 -338,-254 155,-14 111,56 203,3 -148,-154 -93,87 -117,-177 170,30 89,42 217,125l16 -299 -159 -99c86,-124 26,-73 58,-200 1,-6 6,-13 8,-26 1,-13 3,-18 8,-26 113,55 38,8 122,128l104 130c-32,-229 -21,-263 -84,-468 6,-3 17,-5 20,-6l111 -29 25 -329c125,32 60,-38 113,98 42,110 -35,136 31,246 5,8 27,36 31,42 3,5 13,30 16,24 2,-6 13,15 16,24 -70,145 -96,90 -133,241 149,-27 189,-90 308,-79 -13,155 -76,-17 -82,300 -139,-18 -100,-44 -207,29 -29,375 150,172 152,170 148,-82 138,-130 229,-192 64,107 -54,257 -110,372 -75,153 -159,189 -185,356 197,-79 268,-407 550,-528 32,197 76,332 -118,411 87,210 51,155 -12,381 -193,30 -160,-22 -279,100 13,98 -13,-4 48,59 59,60 6,-50 69,64 -88,103 -157,86 -184,211 257,62 466,-248 675,-351 -16,152 3,25 -49,163 -212,569 -98,294 -343,449 -7,5 -15,11 -21,16l-75 71c-118,86 -208,7 -254,178 96,63 229,39 344,13 325,-72 496,-245 839,-320 -43,395 -242,384 -423,667 -5,7 -10,15 -14,22l-108 138c-114,-24 -259,-86 -356,-19 489,393 807,79 1267,8 194,-30 82,-62 337,-57 -116,-94 -165,-39 -189,-222 72,-40 112,-22 155,-65 48,-48 49,-127 84,-192 98,78 28,-6 59,152l111 -100c112,-62 290,-77 430,-108 0,12 -5,26 -7,36 -35,235 19,65 137,306l-165 127c152,92 148,-116 279,-41 163,93 3,201 -17,328 -27,165 -12,41 15,82 70,-193 101,-161 321,-165l172 195c-27,-207 -45,-60 -41,-314 0,-57 16,-55 -48,-107l-81 -48 62 -235c211,112 60,201 239,253 -50,-139 -22,-157 -47,-288 -21,-106 -51,-116 -82,-228 235,19 2,10 150,56 20,-179 -12,-263 49,-412 172,118 33,210 114,359 1,1 39,54 49,68l35 53c-40,33 -43,28 -85,94 -64,100 -13,11 -60,122 141,-22 176,-67 312,-58 -81,102 -68,240 -165,268l-46 5c-133,49 -143,316 54,221l66 -43c7,-5 14,-10 22,-15 7,-5 15,-10 22,-15 93,-64 15,-21 137,-94 -29,237 -284,548 -278,701 149,-131 127,-114 245,-290 149,-224 177,-207 287,-211 49,206 78,257 -111,390 38,113 24,243 -9,371 -272,44 -217,49 -438,191 100,48 47,6 129,-12 96,-21 -52,-74 113,-6 2,7 2,18 2,22l-13 61c-48,81 3,3 -51,46 -65,53 -52,5 -112,99l201 -2c436,-177 336,-310 519,-308 -118,147 -184,337 -214,538 -73,21 -132,16 -179,37 -20,9 -32,13 -37,15 -12,4 -2,-2 0,0 1,2 -3,8 -27,28 -161,134 -235,144 -271,183 201,91 297,103 511,10 135,-58 318,-139 385,-255l-149 -141c58,-100 23,-136 66,-226l138 125c59,102 -3,74 115,138 -55,-248 -38,-265 -118,-493 57,-33 1,-30 85,-8 54,14 5,-3 56,41 15,-163 -52,-291 75,-400 117,108 62,122 66,237 8,245 -2,23 107,203l-161 246c151,-11 164,-59 319,-90 -68,179 -70,73 -89,297 -115,-7 -106,-51 -165,45 -33,54 -43,108 -7,192 95,1 97,-6 177,-61 114,-78 75,-119 210,-139 -74,266 -275,521 -307,690 203,-126 251,-339 440,-455 22,-13 28,-18 29,-20 1,-3 -11,2 0,0 6,-1 19,-5 47,-15 128,363 -19,282 -77,424l20 138c-3,54 -26,108 -39,193 -181,68 -115,-16 -260,95l-188 106c47,40 124,-8 216,16l54 32c-141,132 -132,23 -201,213 474,-69 416,-208 704,-374 -68,215 -162,322 -200,564 -296,66 -122,-38 -304,151 -102,106 -150,71 -174,238 452,5 895,-424 1208,-469 7,161 -55,65 -132,251 -48,119 -19,151 -141,251l-346 416c-140,6 -229,-56 -327,20 532,354 731,61 1106,-5 -13,186 -116,175 -222,333l-136 186c-112,-72 -137,-116 -287,-69 34,105 91,63 179,106 -41,99 -74,154 -135,211 -262,246 -159,-55 -437,261 295,10 136,-91 438,-19 188,45 459,-31 598,-169 131,-130 59,-205 245,-213 -65,279 -334,514 -495,827 -114,-28 9,4 -60,-62 -30,-29 -48,-50 -58,-63 -40,-53 48,1 0,0 -6,0 -14,-1 -25,-3 -53,103 -58,220 -138,310 0,0 0,1 0,1 -103,-103 17,52 0,-1 -3,-11 -14,-34 -35,-71 -47,-84 -61,-95 -175,-82l-101 171c-3,4 -17,24 -19,18 -3,-6 -14,12 -21,18 -114,-75 -168,-270 -226,-381l-948 -1858c-67,-129 -124,-240 -191,-371l-213 -366 -3612 -4c-221,-309 -360,-703 -523,-1035 -304,-617 -614,-244 -1351,-327z"/>
    <path class="fil0" d="M9443 5235l2 707 -461 10 -7 -704 -3330 29c-91,150 -205,450 -284,629l-578 1312c-84,200 -241,475 -281,680 6,-7 14,-27 17,-21l77 -107c316,-471 590,-1023 892,-1496 67,-104 95,-154 157,-264 19,-36 57,-110 73,-136 85,-137 3,-68 124,-117 278,675 598,1357 890,2013 152,344 302,691 441,997 91,200 145,326 225,514 77,178 167,332 214,509 211,23 554,39 755,-10 129,-93 1418,-2940 1750,-3361 -1,-2 -1,-4 -2,-6 -37,-132 23,17 0,0 -7,-5 -23,-28 -53,-81 -50,-89 -19,94 -40,-90 4,-279 106,-342 389,-325l1 155 -241 28c26,33 38,52 43,63 14,30 -26,-2 0,0 9,1 23,5 48,14 124,50 277,17 412,19 -24,-192 -373,-791 -484,-944 -199,-23 -540,-35 -749,-17zm7153 4132c29,132 151,469 295,432 138,-102 3,-58 105,-201 136,22 79,63 289,54 110,-288 95,-158 163,-291 115,-224 -96,26 190,-295 -47,-37 39,-99 -226,43 -330,177 -393,262 -816,258z"/>
    <path class="fil0" d="M5861 9514l577 1c44,-158 25,-318 29,-480l-613 17 7 462z"/>
    <polygon class="fil0" points="5029,9485 5212,9498 5423,9496 5647,9491 5642,9046 5029,9041 "/>
    <path class="fil0" d="M14102 9728l523 7 11 -230 -2 -70 -5 -193 -427 -8c-56,118 -108,330 -100,494z"/>
    <path class="fil0" d="M14772 9726l529 11c14,-164 -45,-393 -100,-501l-424 2 -5 488z"/>
    <path class="fil0" d="M14249 9058l388 11 -6 -492c-181,21 -46,-35 -158,54 -66,54 -190,323 -224,427z"/>
    <path class="fil0" d="M14777 9057l384 6c-77,-192 -142,-448 -389,-482l5 476z"/>
   </g>
   <path class="fil2" d="M1503 10732l0 392 -183 0c-22,-102 -56,-177 -103,-225 -47,-48 -108,-72 -184,-72 -143,0 -250,68 -323,205 -74,136 -110,339 -110,608 0,250 33,439 100,567 67,129 165,193 294,193 66,0 119,-11 161,-33 41,-22 74,-55 99,-100 25,-44 46,-106 64,-186l185 0 0 409c-98,24 -189,41 -271,52 -82,11 -168,16 -256,16 -187,0 -341,-33 -459,-101 -119,-68 -206,-170 -263,-306 -56,-137 -84,-310 -84,-520 0,-195 33,-365 99,-510 67,-145 164,-257 293,-335 129,-79 283,-118 463,-118 91,0 173,5 247,15 74,10 152,26 231,49zm9606 0l0 392 -184 0c-22,-102 -56,-177 -103,-225 -47,-48 -108,-72 -184,-72 -143,0 -250,68 -323,205 -74,136 -110,339 -110,608 0,250 34,439 100,567 67,129 165,193 294,193 66,0 119,-11 161,-33 41,-22 74,-55 99,-100 25,-44 46,-106 64,-186l186 0 0 409c-99,24 -190,41 -272,52 -82,11 -168,16 -256,16 -187,0 -341,-33 -459,-101 -119,-68 -206,-170 -263,-306 -56,-137 -84,-310 -84,-520 0,-195 33,-365 99,-510 67,-145 164,-257 293,-335 129,-79 284,-118 463,-118 91,0 173,5 247,15 75,10 152,26 232,49zm1587 -42l0 430 -186 0c-29,-86 -55,-143 -75,-174 -21,-30 -46,-54 -75,-71 -29,-18 -78,-27 -147,-27l-295 0 0 650 178 0c40,0 71,-6 94,-18 22,-11 41,-30 56,-55 15,-27 29,-67 43,-122l152 0 0 549 -152 0c-13,-52 -27,-92 -42,-120 -16,-27 -34,-47 -55,-58 -22,-12 -53,-18 -96,-18l-178 0 0 722 293 0c32,0 59,-2 80,-6 22,-4 41,-11 59,-21 17,-10 33,-23 49,-40 16,-17 30,-36 42,-56 12,-19 24,-46 38,-78 14,-33 29,-77 45,-134l185 0 -26 494 -1330 0 0 -89c34,-10 60,-19 80,-30 19,-10 34,-24 43,-43 9,-18 15,-42 18,-70 3,-29 4,-65 4,-108l0 -1166c0,-43 -1,-78 -3,-107 -2,-29 -8,-52 -18,-71 -9,-18 -23,-32 -43,-44 -19,-11 -46,-21 -81,-30l0 -89 1343 0zm822 1509c0,59 3,101 7,126 5,25 12,44 23,59 10,16 25,28 44,38 20,9 50,18 90,26l0 89 -728 0 0 -89c34,-10 60,-19 80,-30 19,-10 33,-24 42,-43 10,-18 16,-42 19,-70 3,-29 4,-65 4,-108l0 -1166c0,-43 -1,-78 -4,-107 -1,-29 -7,-52 -17,-71 -9,-18 -24,-32 -43,-44 -19,-11 -46,-21 -81,-30l0 -89 786 0c229,0 400,40 513,122 114,82 171,208 171,377 0,120 -27,224 -80,313 -53,88 -131,155 -232,201 -101,45 -227,68 -378,68 -88,0 -160,-2 -216,-6l0 434zm0 -586l117 0c90,0 161,-13 215,-39 53,-26 92,-67 118,-123 26,-56 39,-131 39,-225 0,-94 -13,-169 -39,-224 -26,-56 -63,-95 -113,-119 -49,-23 -113,-35 -191,-35 -62,0 -111,1 -146,3l0 762zm2302 -44c126,40 223,98 289,173 66,75 100,166 100,271 0,90 -16,169 -46,235 -30,67 -76,122 -138,165 -62,43 -134,74 -218,94 -83,20 -190,30 -318,30l-834 0 0 -89c34,-10 60,-19 79,-30 20,-10 34,-24 43,-43 10,-18 16,-42 19,-70 3,-29 4,-65 4,-108l0 -1166c0,-43 -1,-78 -4,-107 -2,-29 -8,-52 -17,-71 -9,-18 -24,-32 -43,-44 -20,-11 -46,-21 -81,-30l0 -89 886 0c101,0 184,5 248,15 85,13 158,37 221,70 55,30 99,72 131,127 31,55 47,121 47,197 0,203 -123,356 -368,458l0 12zm-421 -70c91,0 161,-13 213,-39 51,-27 90,-64 117,-112 27,-48 39,-115 39,-200 0,-74 -14,-134 -42,-177 -30,-44 -71,-76 -124,-95 -53,-19 -119,-28 -199,-28 -63,0 -124,3 -184,7l0 644 180 0zm-180 875c53,3 115,4 184,4 86,0 157,-10 212,-32 56,-21 99,-58 129,-110 31,-53 46,-126 46,-217 0,-66 -8,-121 -24,-168 -16,-46 -40,-84 -73,-112 -33,-29 -71,-49 -117,-62 -44,-13 -101,-20 -169,-20l-188 0 0 717zm2863 -177c0,91 8,152 24,182 16,30 56,53 119,69l0 89 -706 0 0 -89c65,-16 106,-37 121,-64 15,-26 23,-89 23,-187l0 -529c0,-160 4,-281 12,-364l-8 0 -643 893c0,89 9,149 25,181 17,31 57,54 121,70l0 89 -710 0 0 -89c62,-16 102,-39 119,-69 17,-30 26,-91 26,-182l0 -1166c0,-93 -8,-154 -25,-183 -16,-29 -56,-52 -120,-69l0 -89 710 0 0 89c-64,18 -104,42 -121,72 -16,30 -25,90 -25,181l0 595c0,113 -3,202 -10,267l9 0 640 -894c0,-76 -8,-128 -25,-155 -16,-28 -55,-50 -119,-66l0 -89 706 0 0 89c-62,17 -102,41 -118,70 -16,29 -25,90 -25,183l0 1165zm1748 -1465l0 392 -184 0c-21,-102 -55,-177 -103,-225 -46,-48 -108,-72 -183,-72 -143,0 -251,68 -324,205 -73,136 -110,339 -110,608 0,250 34,439 101,567 67,129 165,193 293,193 66,0 120,-11 162,-33 41,-22 74,-55 99,-100 25,-44 46,-106 64,-186l185 0 0 409c-99,24 -190,41 -271,52 -82,11 -168,16 -256,16 -188,0 -341,-33 -460,-101 -118,-68 -206,-170 -262,-306 -56,-137 -84,-310 -84,-520 0,-195 33,-365 99,-510 66,-145 164,-257 293,-335 129,-79 283,-118 462,-118 92,0 174,5 248,15 74,10 151,26 231,49zm-17699 1805l0 -89c38,-7 68,-15 90,-26 22,-10 39,-25 50,-44 11,-19 17,-43 20,-72 3,-29 4,-66 4,-109l0 -1349 -109 0c-55,0 -96,6 -125,19 -29,13 -54,32 -75,60 -21,27 -40,63 -55,108 -15,46 -28,89 -38,130l-185 0 0 -475 1592 0 0 475 -185 0c-17,-62 -31,-107 -41,-136 -10,-28 -21,-53 -33,-73 -12,-20 -25,-38 -38,-51 -14,-13 -28,-24 -44,-33 -15,-8 -34,-14 -57,-18 -23,-4 -53,-6 -90,-6l-98 0 0 1349c0,48 2,84 5,109 2,25 7,45 14,60 8,16 17,28 27,37 10,10 25,18 43,26 19,8 43,14 75,19l0 89 -747 0zm1953 -338c0,59 2,101 7,126 4,25 11,44 22,59 10,16 25,28 45,38 19,9 49,18 89,26l0 89 -728 0 0 -89c34,-10 60,-19 80,-30 19,-10 34,-24 43,-43 9,-18 15,-42 18,-70 3,-29 4,-65 4,-108l0 -1166c0,-43 -1,-78 -3,-107 -2,-29 -8,-52 -18,-71 -9,-18 -23,-32 -43,-44 -19,-11 -46,-21 -81,-30l0 -89 786 0c229,0 400,40 514,122 113,82 170,208 170,377 0,120 -27,224 -80,313 -53,88 -130,155 -231,201 -101,45 -228,68 -379,68 -88,0 -159,-2 -215,-6l0 434zm0 -586l116 0c90,0 162,-13 215,-39 53,-26 93,-67 119,-123 25,-56 38,-131 38,-225 0,-94 -13,-169 -38,-224 -26,-56 -64,-95 -114,-119 -49,-23 -113,-35 -190,-35 -63,0 -112,1 -146,3l0 762zm1928 945c-265,0 -464,-77 -597,-232 -133,-156 -200,-388 -200,-697 0,-203 32,-377 97,-520 64,-144 159,-254 285,-329 125,-74 274,-112 447,-112 270,0 473,78 608,232 135,155 203,385 203,689 0,171 -20,317 -60,440 -41,122 -98,222 -172,301 -74,78 -162,136 -265,173 -104,37 -219,55 -346,55zm-367 -966c0,273 33,475 99,608 65,133 165,200 299,200 70,0 129,-18 177,-56 49,-38 88,-90 119,-157 30,-67 52,-147 65,-239 13,-92 19,-193 19,-303 0,-179 -14,-330 -43,-451 -28,-121 -71,-213 -128,-275 -57,-62 -131,-92 -220,-92 -131,0 -228,62 -291,187 -64,125 -96,318 -96,578zm3106 605c0,91 7,152 23,182 16,30 56,53 120,69l0 89 -706 0 0 -89c65,-16 105,-37 120,-64 15,-26 23,-89 23,-187l0 -529c0,-160 4,-281 12,-364l-8 0 -643 893c0,89 9,149 25,181 17,31 58,54 121,70l0 89 -710 0 0 -89c62,-16 102,-39 119,-69 17,-30 26,-91 26,-182l0 -1166c0,-93 -8,-154 -24,-183 -17,-29 -57,-52 -121,-69l0 -89 710 0 0 89c-63,18 -104,42 -121,72 -16,30 -25,90 -25,181l0 595c0,113 -3,202 -9,267l8 0 640 -894c0,-76 -8,-128 -24,-155 -16,-28 -56,-50 -119,-66l0 -89 706 0 0 89c-63,17 -103,41 -119,70 -16,29 -24,90 -24,183l0 1165zm-257 -2004c0,101 -45,180 -134,236 -90,57 -209,85 -359,85 -319,0 -479,-107 -479,-321l0 -82 276 0 0 70c0,135 69,203 206,203 78,0 133,-17 165,-50 31,-34 47,-84 47,-153l0 -70 278 0 0 82z"/>
   <g>
    <path class="fil3" d="M2028 13625c-20,5 -32,13 -38,22 -5,10 -7,29 -7,59l0 370c0,29 2,48 7,58 5,10 18,17 38,22l0 28 -224 0 0 -28c20,-5 33,-12 38,-20 5,-9 7,-29 7,-60l0 -425 -181 0 0 425c0,29 2,48 8,58 5,10 18,17 38,22l0 28 -226 0 0 -28c20,-5 33,-12 38,-22 5,-10 8,-29 8,-58l0 -371c0,-29 -2,-49 -8,-58 -5,-9 -18,-17 -38,-22l0 -28 540 0 0 28zm341 566c-84,0 -148,-25 -190,-74 -42,-49 -63,-123 -63,-222 0,-64 10,-119 30,-165 21,-46 51,-81 91,-105 40,-23 87,-35 142,-35 86,0 151,24 194,74 43,49 64,122 64,219 0,54 -6,101 -19,140 -13,39 -31,70 -54,95 -24,25 -52,44 -85,55 -33,12 -69,18 -110,18zm-117 -307c0,86 11,151 32,193 20,43 52,64 95,64 22,0 41,-6 56,-18 16,-12 28,-29 38,-50 10,-21 17,-47 21,-76 4,-29 6,-61 6,-97 0,-57 -5,-104 -14,-143 -9,-39 -22,-68 -40,-87 -19,-20 -42,-30 -70,-30 -42,0 -73,20 -93,60 -20,39 -31,101 -31,184zm1135 -259c-15,4 -25,9 -31,14 -5,5 -9,12 -11,20 -2,9 -4,24 -4,45l0 373c0,17 1,31 3,41 2,10 5,18 11,23 5,6 16,10 32,15l0 28 -221 0 0 -28c13,-4 22,-7 27,-9 5,-3 8,-6 11,-10 3,-5 5,-11 6,-19 1,-9 2,-23 2,-42l0 -211c0,-23 0,-51 1,-82 1,-32 2,-54 3,-67l-9 0c-4,11 -7,22 -11,33 -4,11 -11,31 -22,59l-115 311 -76 0 -121 -349c-8,-20 -14,-39 -19,-59l-8 0c3,47 4,103 4,168l0 198c0,21 1,36 3,44 2,9 6,16 12,21 6,5 17,10 32,14l0 28 -163 0 0 -28c11,-3 19,-6 25,-10 6,-3 11,-8 14,-14 3,-5 5,-12 6,-21 1,-9 1,-21 1,-34l0 -373c0,-22 -1,-37 -3,-44 -2,-9 -5,-15 -11,-20 -5,-5 -16,-10 -32,-15l0 -28 214 0 119 353 129 -353 202 0 0 28zm341 566c-84,0 -148,-25 -190,-74 -42,-49 -63,-123 -63,-222 0,-64 10,-119 30,-165 21,-46 51,-81 91,-105 40,-23 87,-35 142,-35 86,0 151,24 194,74 43,49 64,122 64,219 0,54 -6,101 -19,140 -13,39 -31,70 -54,95 -24,25 -52,44 -85,55 -33,12 -69,18 -110,18zm-117 -307c0,86 11,151 32,193 20,43 52,64 95,64 22,0 41,-6 56,-18 16,-12 28,-29 38,-50 10,-21 17,-47 21,-76 4,-29 6,-61 6,-97 0,-57 -5,-104 -14,-143 -9,-39 -22,-68 -41,-87 -18,-20 -41,-30 -69,-30 -42,0 -73,20 -93,60 -20,39 -31,101 -31,184zm649 -26c-23,-12 -45,-46 -64,-100 -14,-37 -25,-62 -33,-74 -9,-11 -20,-17 -34,-17 -18,0 -29,13 -32,39l-58 0 0 -106c17,-7 38,-10 62,-10 31,0 55,4 74,14 18,9 33,23 44,41 12,18 25,50 41,98 15,45 31,75 49,91 17,16 38,24 61,24l4 0 0 -153c0,-30 -3,-49 -8,-58 -5,-9 -18,-16 -38,-22l0 -28 224 0 0 28c-18,5 -30,12 -37,20 -6,9 -10,28 -10,60l0 153 4 0c24,0 44,-8 62,-24 17,-16 33,-46 48,-91 16,-47 29,-79 40,-97 11,-18 26,-32 45,-42 18,-9 43,-14 74,-14 24,0 45,3 62,10l0 106 -58 0c-3,-26 -13,-39 -32,-39 -13,0 -24,6 -33,17 -9,12 -20,36 -34,74 -19,54 -40,88 -64,100l0 4c54,6 94,41 119,106 31,81 52,132 62,152 9,21 25,33 47,36l0 28 -178 0 0 -21c-6,-16 -16,-45 -29,-85 -25,-75 -45,-122 -58,-142 -14,-21 -38,-31 -72,-31l-5 0 0 171c0,32 4,52 10,60 6,9 19,15 37,20l0 28 -224 0 0 -28c19,-5 31,-12 37,-21 6,-9 9,-29 9,-59l0 -171 -4 0c-36,0 -60,11 -73,32 -14,21 -33,68 -57,141 -16,47 -26,75 -30,85l0 21 -179 0 0 -28c23,-3 39,-16 49,-37 10,-21 30,-71 61,-151 26,-65 65,-100 119,-106l0 -4zm1062 -261l0 137 -59 0c-9,-28 -17,-46 -24,-56 -7,-9 -15,-17 -24,-23 -9,-5 -24,-8 -46,-8l-94 0 0 207 56 0c13,0 23,-2 30,-6 7,-3 13,-9 18,-18 5,-8 9,-21 14,-38l48 0 0 174 -48 0c-5,-16 -9,-29 -14,-38 -5,-8 -10,-15 -17,-18 -7,-4 -17,-6 -31,-6l-56 0 0 230 93 0c10,0 19,-1 25,-2 7,-1 13,-4 19,-7 5,-3 11,-7 16,-13 5,-5 9,-11 13,-17 4,-7 8,-15 12,-25 5,-11 9,-25 14,-43l59 0 -8 157 -423 0 0 -28c11,-3 19,-6 25,-9 7,-4 11,-8 14,-14 3,-6 5,-14 6,-23 1,-9 1,-20 1,-34l0 -371c0,-13 0,-25 -1,-34 -1,-9 -2,-16 -6,-22 -2,-6 -7,-11 -13,-14 -6,-4 -15,-7 -26,-10l0 -28 427 0zm745 28c-15,4 -25,9 -31,14 -5,5 -9,12 -11,20 -2,9 -3,24 -3,45l0 373c0,17 0,31 2,41 2,10 5,18 11,23 5,6 16,10 32,15l0 28 -221 0 0 -28c13,-4 22,-7 27,-9 5,-3 8,-6 11,-10 3,-5 5,-11 6,-19 1,-9 2,-23 2,-42l0 -211c0,-23 1,-51 1,-82 1,-32 2,-54 3,-67l-9 0c-4,11 -7,22 -11,33 -4,11 -11,31 -22,59l-115 311 -76 0 -121 -349c-8,-20 -14,-39 -19,-59l-8 0c3,47 4,103 4,168l0 198c0,21 1,36 3,44 2,9 6,16 12,21 6,5 17,10 32,14l0 28 -163 0 0 -28c11,-3 19,-6 25,-10 6,-3 11,-8 14,-14 3,-5 5,-12 6,-21 1,-9 1,-21 1,-34l0 -373c0,-22 -1,-37 -3,-44 -2,-9 -5,-15 -11,-20 -5,-5 -16,-10 -32,-15l0 -28 214 0 119 353 129 -353 202 0 0 28zm818 0c-21,5 -33,13 -38,22 -5,10 -8,29 -8,59l0 370c0,29 3,48 8,58 5,10 17,17 38,22l0 28 -225 0 0 -28c21,-5 33,-12 38,-20 5,-9 7,-29 7,-60l0 -425 -181 0 0 425c0,29 3,48 8,58 5,10 18,17 38,22l0 28 -226 0 0 -28c20,-5 33,-12 38,-22 6,-10 8,-29 8,-58l0 -371c0,-29 -2,-49 -7,-58 -5,-9 -18,-17 -39,-22l0 -28 541 0 0 28zm340 566c-84,0 -147,-25 -190,-74 -42,-49 -63,-123 -63,-222 0,-64 10,-119 31,-165 20,-46 50,-81 90,-105 40,-23 88,-35 143,-35 86,0 150,24 193,74 43,49 65,122 65,219 0,54 -7,101 -19,140 -13,39 -31,70 -55,95 -24,25 -52,44 -84,55 -33,12 -70,18 -111,18zm-116 -307c0,86 10,151 31,193 21,43 53,64 95,64 22,0 41,-6 57,-18 15,-12 28,-29 37,-50 10,-21 17,-47 21,-76 4,-29 6,-61 6,-97 0,-57 -4,-104 -13,-143 -9,-39 -23,-68 -41,-87 -18,-20 -42,-30 -70,-30 -42,0 -73,20 -93,60 -20,39 -30,101 -30,184zm899 -274l0 125 -58 0c-7,-33 -18,-57 -33,-72 -15,-15 -35,-23 -59,-23 -45,0 -79,22 -103,65 -23,44 -35,108 -35,194 0,79 11,139 32,180 22,41 53,62 94,62 21,0 38,-4 51,-11 13,-7 24,-17 32,-31 8,-15 14,-34 20,-60l59 0 0 131c-31,7 -60,12 -86,16 -27,3 -54,5 -82,5 -59,0 -108,-11 -146,-32 -38,-22 -66,-54 -83,-98 -18,-43 -27,-98 -27,-165 0,-62 10,-116 31,-162 21,-46 52,-82 93,-107 42,-25 91,-37 148,-37 29,0 55,1 78,4 24,4 49,9 74,16zm200 574l0 -28c12,-2 21,-5 28,-8 7,-3 13,-8 16,-14 4,-6 6,-14 6,-23 1,-10 2,-21 2,-35l0 -429 -35 0c-17,0 -30,2 -40,6 -9,4 -17,10 -24,19 -6,9 -12,20 -17,35 -5,14 -9,28 -12,41l-59 0 0 -151 507 0 0 151 -59 0c-6,-20 -10,-34 -13,-43 -3,-9 -7,-17 -11,-24 -4,-6 -8,-12 -12,-16 -4,-4 -9,-8 -14,-10 -5,-3 -11,-5 -18,-6 -7,-1 -17,-2 -29,-2l-31 0 0 429c0,15 1,27 2,35 0,8 2,14 4,19 3,5 5,9 9,12 3,3 8,5 13,8 6,2 14,4 24,6l0 28 -237 0zm621 -107c0,18 1,32 2,40 1,8 4,14 7,19 3,5 8,8 14,12 7,3 16,5 29,8l0 28 -232 0 0 -28c11,-3 19,-6 26,-9 6,-4 10,-8 13,-14 3,-6 5,-14 6,-23 1,-9 1,-20 1,-34l0 -371c0,-13 0,-25 -1,-34 0,-9 -2,-16 -5,-22 -3,-6 -8,-11 -14,-14 -6,-4 -15,-7 -26,-10l0 -28 250 0c73,0 127,13 164,39 36,26 54,66 54,119 0,39 -9,72 -26,100 -16,28 -41,49 -73,64 -32,14 -72,22 -121,22 -28,0 -50,-1 -68,-2l0 138zm0 -187l37 0c29,0 51,-4 68,-12 17,-8 30,-21 38,-39 8,-18 12,-42 12,-72 0,-30 -4,-54 -12,-71 -8,-18 -20,-30 -36,-38 -16,-7 -36,-11 -61,-11 -20,0 -35,0 -46,1l0 242zm613 301c-84,0 -147,-25 -190,-74 -42,-49 -63,-123 -63,-222 0,-64 10,-119 31,-165 20,-46 50,-81 90,-105 40,-23 87,-35 143,-35 85,0 150,24 193,74 43,49 64,122 64,219 0,54 -6,101 -19,140 -12,39 -31,70 -54,95 -24,25 -52,44 -85,55 -33,12 -69,18 -110,18zm-116 -307c0,86 10,151 31,193 21,43 53,64 95,64 22,0 41,-6 57,-18 15,-12 28,-29 37,-50 10,-21 17,-47 21,-76 4,-29 6,-61 6,-97 0,-57 -4,-104 -13,-143 -9,-39 -23,-68 -41,-87 -19,-20 -42,-30 -70,-30 -42,0 -73,20 -93,60 -20,39 -30,101 -30,184zm988 192c0,29 2,48 7,58 5,10 18,17 38,22l0 28 -225 0 0 -28c21,-5 34,-12 39,-20 5,-9 7,-29 7,-60l0 -168c0,-51 1,-89 4,-116l-3 0 -204 284c0,29 3,48 8,58 5,10 18,17 38,22l0 28 -226 0 0 -28c20,-5 33,-12 38,-22 6,-10 9,-29 9,-58l0 -371c0,-29 -3,-49 -8,-58 -5,-9 -18,-17 -39,-22l0 -28 226 0 0 28c-20,6 -33,13 -38,23 -5,9 -8,29 -8,58l0 189c0,36 -1,64 -3,85l2 0 204 -285c0,-24 -3,-40 -8,-49 -5,-9 -17,-16 -38,-21l0 -28 225 0 0 28c-20,5 -33,13 -38,22 -5,10 -7,29 -7,59l0 370zm250 108l0 -28c12,-2 22,-5 29,-8 7,-3 12,-8 15,-14 4,-6 6,-14 7,-23 1,-10 1,-21 1,-35l0 -429 -35 0c-17,0 -30,2 -39,6 -9,4 -17,10 -24,19 -7,9 -13,20 -18,35 -4,14 -9,28 -12,41l-59 0 0 -151 507 0 0 151 -59 0c-5,-20 -10,-34 -13,-43 -3,-9 -7,-17 -10,-24 -4,-6 -8,-12 -13,-16 -4,-4 -9,-8 -14,-10 -4,-3 -10,-5 -18,-6 -7,-1 -17,-2 -28,-2l-31 0 0 429c0,15 0,27 1,35 1,8 2,14 5,19 2,5 5,9 8,12 3,3 8,5 14,8 6,2 14,4 24,6l0 28 -238 0zm674 -587l0 28c-22,4 -37,10 -43,20 -7,10 -10,30 -10,60l0 141c39,-3 72,-5 100,-5 72,0 126,14 161,41 36,28 54,71 54,131 0,114 -76,171 -229,171l-265 0 0 -28c20,-5 32,-12 38,-22 5,-10 8,-29 8,-58l0 -371c0,-29 -3,-49 -8,-58 -5,-9 -18,-17 -38,-22l0 -28 232 0zm-53 301l0 234c75,5 124,-2 147,-22 23,-20 35,-52 35,-95 0,-79 -39,-119 -118,-119l-15 0c-20,0 -36,1 -49,2zm951 -22c40,13 71,31 92,55 21,24 32,53 32,87 0,28 -5,53 -15,75 -9,21 -24,38 -44,52 -19,13 -42,23 -69,30 -27,6 -60,9 -101,9l-266 0 0 -28c11,-3 20,-6 26,-9 6,-4 10,-8 13,-14 3,-6 5,-14 6,-23 1,-9 2,-20 2,-34l0 -371c0,-13 -1,-25 -2,-34 0,-9 -2,-16 -5,-22 -3,-6 -8,-11 -14,-14 -6,-4 -15,-7 -26,-10l0 -28 282 0c33,0 59,1 79,4 27,5 51,12 70,23 18,9 32,23 42,40 10,18 15,39 15,63 0,64 -39,113 -117,146l0 3zm-134 -22c29,0 51,-4 68,-12 16,-9 29,-21 37,-36 9,-15 13,-36 13,-63 0,-24 -5,-43 -14,-57 -9,-14 -22,-24 -39,-30 -17,-6 -38,-9 -64,-9 -20,0 -39,1 -58,2l0 205 57 0zm-57 278c17,1 36,2 58,2 28,0 50,-4 68,-10 18,-7 31,-19 41,-36 10,-16 15,-39 15,-69 0,-20 -3,-38 -8,-53 -5,-15 -13,-27 -23,-36 -11,-9 -23,-15 -37,-19 -15,-4 -33,-7 -54,-7l-60 0 0 228zm689 -130l-184 0 -14 41c-4,11 -7,23 -10,33 -2,11 -4,23 -4,35 0,28 15,43 45,45l0 28 -184 0 0 -28c11,-1 20,-5 28,-11 8,-7 16,-15 22,-26 7,-11 14,-27 21,-47l180 -478 115 0 142 482c6,21 11,37 16,46 4,9 10,16 16,22 7,5 17,9 29,12l0 28 -237 0 0 -28c15,-2 26,-6 33,-13 7,-6 11,-16 11,-28 0,-9 -1,-19 -3,-29 -2,-11 -6,-25 -10,-42l-12 -42zm-167 -50l155 0 -69 -243 -86 243zm436 232l0 -28c20,-6 32,-13 38,-22 5,-10 7,-29 7,-59l0 -370c0,-30 -2,-49 -7,-58 -6,-10 -18,-17 -38,-22l0 -28 224 0 0 28c-20,5 -33,12 -38,20 -5,9 -7,28 -7,60l0 425 160 0 0 -425c0,-29 -3,-48 -8,-58 -5,-10 -18,-17 -39,-22l0 -28 226 0 0 28c-20,5 -32,12 -38,22 -5,9 -8,28 -8,58l0 425 160 0 0 -425c0,-29 -2,-48 -7,-58 -6,-10 -19,-17 -39,-22l0 -28 226 0 0 28c-20,5 -32,12 -38,22 -5,9 -8,29 -8,58l0 371c0,29 2,48 7,58 5,9 18,16 39,22l0 28 -812 0zm1322 -587l0 137 -59 0c-9,-28 -17,-46 -24,-56 -7,-9 -15,-17 -24,-23 -9,-5 -25,-8 -47,-8l-93 0 0 207 56 0c13,0 23,-2 30,-6 7,-3 13,-9 18,-18 5,-8 9,-21 14,-38l48 0 0 174 -48 0c-5,-16 -9,-29 -14,-38 -5,-8 -11,-15 -17,-18 -7,-4 -17,-6 -31,-6l-56 0 0 230 93 0c10,0 19,-1 25,-2 7,-1 13,-4 19,-7 5,-3 10,-7 15,-13 6,-5 10,-11 14,-17 4,-7 8,-15 12,-25 4,-11 9,-25 14,-43l59 0 -8 157 -423 0 0 -28c11,-3 19,-6 25,-9 6,-4 11,-8 14,-14 3,-6 5,-14 6,-23 1,-9 1,-20 1,-34l0 -371c0,-13 0,-25 -1,-34 -1,-9 -3,-16 -6,-22 -3,-6 -7,-11 -13,-14 -6,-4 -15,-7 -26,-10l0 -28 427 0zm276 587l0 -28c20,-5 33,-12 38,-22 6,-10 8,-29 8,-58l0 -371c0,-29 -2,-49 -7,-58 -5,-9 -18,-17 -39,-22l0 -28 454 0 0 145 -59 0c-13,-40 -26,-66 -38,-77 -12,-11 -31,-17 -57,-17l-120 0 0 198c39,-3 72,-5 99,-5 72,0 126,14 162,41 36,28 54,71 54,131 0,114 -77,171 -229,171l-266 0zm180 -52c75,5 123,-2 147,-22 23,-20 34,-52 34,-95 0,-79 -39,-119 -117,-119l-15 0c-20,0 -36,1 -49,2l0 234zm654 -102c-26,55 -52,96 -78,124 -25,27 -58,40 -99,40 -23,0 -49,-4 -81,-12l0 -120 63 0c1,36 15,55 41,55 31,0 59,-27 85,-79l-150 -326c-16,-33 -28,-56 -37,-68 -9,-12 -20,-18 -34,-19l0 -28 229 0 0 28c-22,3 -33,14 -33,33 0,11 8,33 23,68l74 171 70 -167c13,-30 19,-54 19,-71 0,-22 -11,-33 -33,-34l0 -28 170 0 0 28c-16,4 -30,13 -43,30 -12,16 -27,40 -43,71l-143 304zm284 154c-29,0 -48,10 -58,30 -11,20 -21,61 -32,125l-57 0 0 -210 46 0c44,-61 79,-136 106,-225 27,-88 40,-162 40,-221 0,-23 -4,-38 -12,-45 -7,-7 -18,-12 -31,-13l0 -28 387 0 0 28c-20,5 -33,11 -40,19 -7,8 -10,30 -10,67l0 418 69 0 0 210 -57 0c-10,-59 -20,-99 -30,-121 -11,-23 -31,-34 -61,-34l-260 0zm206 -55l0 -481 -93 0c-18,205 -63,365 -137,481l230 0zm540 -99c-26,55 -52,96 -77,124 -26,27 -59,40 -99,40 -23,0 -50,-4 -81,-12l0 -120 63 0c1,36 15,55 41,55 31,0 59,-27 84,-79l-150 -326c-15,-33 -27,-56 -36,-68 -9,-12 -21,-18 -35,-19l0 -28 230 0 0 28c-22,3 -33,14 -33,33 0,11 7,33 23,68l73 171 71 -167c12,-30 19,-54 19,-71 0,-22 -11,-33 -34,-34l0 -28 171 0 0 28c-16,4 -31,13 -43,30 -13,16 -27,40 -43,71l-144 304z"/>
    <path class="fil3" d="M17432 14340c-10,-66 -22,-108 -35,-127 -13,-19 -32,-29 -56,-29l-697 0 0 -28c20,-6 32,-13 38,-23 5,-9 7,-28 7,-58l0 -369c0,-30 -2,-49 -7,-59 -6,-9 -18,-16 -38,-21l0 -28 225 0 0 28c-21,5 -33,11 -38,20 -5,8 -7,28 -7,60l0 424 161 0 0 -425c0,-28 -3,-47 -8,-57 -6,-10 -19,-18 -39,-23l0 -28 227 0 0 28c-20,5 -33,12 -39,22 -5,9 -7,29 -7,58l0 425 158 0 0 -425c0,-28 -3,-47 -8,-57 -5,-10 -18,-18 -39,-23l0 -28 228 0 0 28c-20,5 -33,13 -38,22 -6,10 -8,29 -8,58l0 425 77 0 0 210 -57 0zm547 -743l0 137 -59 0c-10,-28 -18,-46 -25,-56 -6,-9 -14,-17 -23,-23 -9,-5 -25,-8 -47,-8l-94 0 0 207 57 0c13,0 22,-2 30,-6 7,-3 13,-9 17,-18 5,-8 10,-21 14,-38l49 0 0 174 -49 0c-4,-16 -9,-29 -13,-38 -5,-8 -11,-15 -18,-18 -7,-4 -17,-6 -30,-6l-57 0 0 230 93 0c10,0 19,-1 26,-2 7,-1 13,-4 18,-7 6,-3 11,-7 16,-13 5,-5 10,-11 13,-17 4,-7 8,-15 13,-25 4,-11 9,-25 14,-43l59 0 -8 157 -424 0 0 -28c11,-3 20,-6 26,-9 6,-4 10,-8 13,-14 4,-6 5,-14 6,-23 1,-9 2,-20 2,-34l0 -371c0,-13 -1,-25 -2,-34 0,-9 -2,-16 -5,-22 -3,-6 -8,-11 -14,-14 -6,-4 -14,-7 -26,-10l0 -28 428 0zm509 0l0 137 -59 0c-10,-28 -18,-46 -24,-56 -7,-9 -15,-17 -24,-23 -9,-5 -25,-8 -47,-8l-94 0 0 207 57 0c13,0 23,-2 30,-6 7,-3 13,-9 18,-18 4,-8 9,-21 13,-38l49 0 0 174 -49 0c-4,-16 -8,-29 -13,-38 -5,-8 -11,-15 -18,-18 -6,-4 -16,-6 -30,-6l-57 0 0 230 94 0c10,0 18,-1 25,-2 7,-1 13,-4 19,-7 5,-3 10,-7 15,-13 5,-5 10,-11 14,-17 4,-7 8,-15 12,-25 4,-11 9,-25 14,-43l59 0 -8 157 -423 0 0 -28c10,-3 19,-6 25,-9 6,-4 11,-8 14,-14 3,-6 5,-14 6,-23 0,-9 1,-20 1,-34l0 -371c0,-13 -1,-25 -1,-34 -1,-9 -3,-16 -6,-22 -3,-6 -7,-11 -14,-14 -6,-4 -14,-7 -25,-10l0 -28 427 0z"/>
   </g>
   <polygon class="fil0" points="810,12972 19166,12972 19166,13084 810,13084 "/>
  </g>
 </g>
</svg>
